# xmcd
#
# Track frame offsets: 
#        150
#        17033
#        32924
#        49463
#        62944
#        78384
#        100632
#        113818
#        123943
#        147374
#        167287
#        181145
#        197539
#        215402
#
# Disc length: 3146 seconds
#
# Revision: 0
# Processed by: cddbd v1.5.2PL0 Copyright (c) Steve Scherf et al.
# Submitted via: ExactAudioCopyFreeDBPlugin 1.0
#
DISCID=bb0c480e
DTITLE=Tex Perkins and the Band of Gold - Tex Perkins and the Band of 
DTITLE=Gold
DYEAR=2011
DGENRE=
TTITLE0=Help Me Make it Through the Night
TTITLE1=Silver Wings
TTITLE2=Anyhow I Love You
TTITLE3=If I Needed You
TTITLE4=I'd Rather Be Sorry
TTITLE5=Speed of the Sound of Loneliness
TTITLE6=It's Not Love But It's Not Bad
TTITLE7=Say It's Not You
TTITLE8=Lonely Coming Down
TTITLE9=Gypsy Rider
TTITLE10=Pardon Me, I've Got Someone to Kill
TTITLE11=Kathleen
TTITLE12=Till I Gain Control Again
TTITLE13=Rock Salt and Nails
EXTD=
EXTT0=
EXTT1=
EXTT2=
EXTT3=
EXTT4=
EXTT5=
EXTT6=
EXTT7=
EXTT8=
EXTT9=
EXTT10=
EXTT11=
EXTT12=
EXTT13=
PLAYORDER=
